<svg width="520" height="326" viewBox="0 0 520 326" fill="none" xmlns="http://www.w3.org/2000/svg">
<rect width="520" height="326" fill="white"/>
<path d="M59.7345 11.8453C55.9702 14.2324 52.6475 16.778 48.659 18.8292C46.4943 19.9425 45.2634 20.4733 43.862 22.4975C42.6581 24.2365 40.9549 24.6808 39.7704 26.5891C37.5269 30.2037 34.2965 32.4784 32.1516 36.1832C29.9647 39.9605 27.3546 42.354 27.3546 47.047C27.3546 50.5114 26.7734 54.5203 27.3899 57.9108C27.7852 60.0853 29.4994 61.6475 29.8589 63.6249C30.2842 65.9639 30.4083 67.2708 31.7636 69.3038C32.5011 70.4099 32.6847 71.1894 33.9858 71.5612C34.7625 71.7831 34.9914 73.0726 35.9258 73.3601C37.2721 73.7743 37.9136 72.096 38.7828 71.3848C41.6995 68.9984 49.7195 62.2032 46.4016 57.5581C43.8768 54.0234 44.1568 50.2492 39.4177 48.6695" stroke="black" stroke-linecap="round" stroke-linejoin="round"/>
<path d="M131.479 29.6224C119.616 30.3961 108.09 40.6614 100.933 49.3749C98.5937 52.2225 96.5591 53.9598 96.5591 57.8755C96.5591 59.7857 96.0188 63.1912 97.6173 64.683C103.593 70.2602 114.993 63.8018 121.461 61.8612C124.98 60.8057 130.911 61.2129 130.844 66.0939C130.684 77.7252 119.298 89.1007 108.058 90.4317C103.41 90.9821 100.482 88.8287 96.7707 86.058C93.3895 83.5333 87.0146 77.409 82.4502 77.2399C79.3146 77.1238 69.7758 85.5664 71.9391 89.303C74.5757 93.8572 79.3957 91.8532 83.2262 89.9379" stroke="black" stroke-linecap="round" stroke-linejoin="round"/>
<path d="M184.175 119.778C179.873 115.633 177.25 110.595 174.017 105.634C170.704 100.552 166.885 95.9505 164.281 90.4318C160.227 81.8362 158.798 75.662 164.211 66.7994C166.763 62.6216 170.435 59.2123 173.558 55.477C174.459 54.3992 176.669 50.3873 178.637 50.7153C187.734 52.2314 193.181 66.0405 194.122 73.6422C194.734 78.5888 194.027 83.1066 191.794 87.5395C190.795 89.5212 189.348 93.5291 186.856 94.2412C185.702 94.5707 184.825 92.9658 184.598 92.0896C183.067 86.1823 197.562 85.8818 200.012 85.5642C211.56 84.0673 223.128 83.7003 234.755 83.589C237.827 83.5596 238.971 84.2733 239.552 81.5432C240.844 75.4725 245.128 70.8842 247.03 65.1769" stroke="black" stroke-linecap="round" stroke-linejoin="round"/>
<path d="M113.066 119.778C99.5471 122.397 85.8585 124.645 72.4677 127.891C68.0248 128.968 63.0463 130.209 59.3817 133.182C57.5572 134.662 57.8684 136.37 59.0995 138.049C62.8728 143.195 75.0909 142.788 80.1923 143.269C98.5713 145.006 117.051 144.894 135.429 146.444C136.426 146.528 142.268 146.435 142.589 148.49C142.822 149.985 139.385 153.333 138.744 154.204C133.101 161.872 127.954 169.968 123.93 178.612C122.533 181.613 120.99 185.866 121.461 179.882C121.558 178.652 121.46 176.849 122.59 176.284" stroke="black" stroke-linecap="round" stroke-linejoin="round"/>
<path d="M67.9883 175.015C62.6876 175.74 55.8048 175.801 51.0224 178.683C48.336 180.302 47.5971 183.954 46.8955 186.725C44.7286 195.284 43.2113 204.802 48.5886 212.474C49.9556 214.424 52.0762 216.491 54.3732 217.271C56.6646 218.049 59.0482 215.563 60.8633 214.59C63.3233 213.271 70.3703 209.124 73.4202 210.71C74.9989 211.531 74.3541 219.41 74.3373 220.727C74.2689 226.094 72.3499 231.011 71.9388 236.318C71.6867 239.572 71.7977 242.861 71.7977 246.123" stroke="black" stroke-linecap="round" stroke-linejoin="round"/>
<path d="M134.653 253.742C134.236 244.456 132.96 236.662 128.163 228.487C122.22 218.359 114.164 209.466 105.306 201.821C100.929 198.044 96.1761 194.545 91.1975 191.592C90.7824 191.346 89.913 190.299 90.3863 190.393C94.6083 191.238 98.8636 194.441 102.802 196.213C106.503 197.879 111.05 198.25 114.971 199.141" stroke="black" stroke-linecap="round" stroke-linejoin="round"/>
<path d="M215.92 200.411C213.905 190.491 206.665 181.291 200.682 173.463C193.864 164.54 185.535 156.888 178.743 147.996C177.569 146.459 176.066 144.496 179.025 144.539C190.61 144.707 190.552 158.176 188.902 167.043C186.379 180.597 180.627 193.975 174.123 206.054C172.391 209.27 170.422 212.308 168.938 215.648" stroke="black" stroke-linecap="round" stroke-linejoin="round"/>
<path d="M190.524 259.456C191.106 262.807 190.649 270.742 195.25 271.202C202.226 271.899 209.092 269.536 215.497 267.004C233.285 259.972 251.276 248.843 265.442 235.965" stroke="black" stroke-linecap="round" stroke-linejoin="round"/>
<path d="M265.442 235.965C263.947 245.151 261.917 254.29 260.504 263.477C260.484 263.604 267.937 262.643 268.899 262.631C282.313 262.464 295.866 263.298 309.25 262.207C319.4 261.381 336.755 258.562 340.29 246.758C342.911 238.006 337.497 226.92 331.472 220.727C329.938 219.151 326.411 216.338 325.758 214.378" stroke="black" stroke-linecap="round" stroke-linejoin="round"/>
<path d="M274.331 164.221C276.977 156.429 288.071 156.576 294.93 156.25C302.335 155.897 312.83 156.067 317.715 162.81C319.386 165.116 319.926 168.318 321.031 170.923C322.233 173.757 317.467 165.899 315.811 163.304C310.25 154.594 306.429 145.605 302.478 136.074C300.558 131.443 296.907 117.08 290.415 116.11C286.573 115.536 283.645 117.906 280.186 118.72C278.933 119.015 278.327 114.749 278.14 114.064" stroke="black" stroke-linecap="round" stroke-linejoin="round"/>
<path d="M313.694 86.7635C320.726 82.5177 327.122 77.8755 332.459 71.5259C340.161 62.3627 345.904 48.1985 340.466 36.3948C336.409 27.5893 321.891 32.3352 314.964 34.0668" stroke="black" stroke-linecap="round" stroke-linejoin="round"/>
<path d="M283.854 46.1299C257.442 44.4931 229.659 44.6837 203.716 38.6874C194.463 36.5489 187.539 32.7705 179.73 27.7178" stroke="black" stroke-linecap="round" stroke-linejoin="round"/>
<path d="M165.128 18.1943C162.588 17.5594 160.049 16.9245 157.509 16.2896" stroke="black" stroke-linecap="round" stroke-linejoin="round"/>
<path d="M128.939 5.49634C132.283 10.5818 135.429 15.2663 140.367 18.9703C144.014 21.7052 147.749 22.7448 151.795 24.5433" stroke="black" stroke-linecap="round" stroke-linejoin="round"/>
<path d="M378.454 23.9083C383.304 24.6545 391.586 24.7651 394.468 29.6224C396.674 33.3417 398.014 37.817 400.041 41.6855" stroke="black" stroke-linecap="round" stroke-linejoin="round"/>
<path d="M436.23 56.2882C437.427 62.201 437.635 68.0671 438.135 74.0654" stroke="black" stroke-linecap="round" stroke-linejoin="round"/>
<path d="M429.881 202.95C429.055 204.672 428.513 206.241 427.977 208.029" stroke="black" stroke-linecap="round" stroke-linejoin="round"/>
<path d="M462.896 161.047C455.297 155.981 447.219 151.777 439.228 147.361C421.808 137.735 404.646 127.702 387.343 117.874" stroke="black" stroke-linecap="round" stroke-linejoin="round"/>
<path d="M308.615 62.6372C330.747 63.9888 352.073 79.135 369.283 91.9484C379.458 99.5232 387.64 105.957 390.165 118.579C392.571 130.611 395.106 143.028 395.561 155.333C395.704 159.191 395.471 162.958 396.231 166.761" stroke="black" stroke-linecap="round" stroke-linejoin="round"/>
<path d="M456.547 147.079C443.961 125.37 430.522 104.482 416.654 83.589C412.828 77.8244 409.158 72.1382 406.39 65.8118" stroke="black" stroke-linecap="round" stroke-linejoin="round"/>
<path d="M405.12 68.9862C405.002 76.0836 403.295 82.5113 400.641 89.1266C397.826 96.142 394.386 102.885 391.576 109.902C387.779 119.383 385.858 128.948 383.534 138.825" stroke="black" stroke-linecap="round" stroke-linejoin="round"/>
<path d="M379.724 168.666C369.052 177.364 356.719 183.078 345.439 190.887" stroke="black" stroke-linecap="round" stroke-linejoin="round"/>
<path d="M379.724 223.267C383.938 225.114 388.125 226.783 392.422 228.346" stroke="black" stroke-linecap="round" stroke-linejoin="round"/>
<path d="M421.627 267.075C423.41 268.733 424.644 269.312 426.707 270.249" stroke="black" stroke-linecap="round" stroke-linejoin="round"/>
<path d="M463.531 252.472C463.531 240.135 462.261 227.843 462.261 215.472C462.261 209.619 462.349 203.726 462.931 197.906C463.006 197.161 463.268 195.555 463.919 195.049C466.529 193.019 468.115 199.944 468.61 201.045" stroke="black" stroke-linecap="round" stroke-linejoin="round"/>
<path d="M453.372 275.329C445.12 282.443 431.623 283.937 421.275 285.487C409.842 287.2 398.236 287.46 386.708 288.027" stroke="black" stroke-linecap="round" stroke-linejoin="round"/>
<path d="M370.201 288.027C362.607 290.417 354.546 291.2 346.709 292.471" stroke="black" stroke-linecap="round" stroke-linejoin="round"/>
<path d="M327.662 296.915C309.995 303.982 292.502 304.075 273.696 304.534" stroke="black" stroke-linecap="round" stroke-linejoin="round"/>
<path d="M226.714 305.804C219.327 307.024 212.633 308.344 205.127 308.344" stroke="black" stroke-linecap="round" stroke-linejoin="round"/>
<path d="M149.891 303.264C141.332 303.264 132.854 304.389 124.495 302.629" stroke="black" stroke-linecap="round" stroke-linejoin="round"/>
<path d="M104.178 293.106C102.073 292.214 99.9597 291.386 97.8286 290.566" stroke="black" stroke-linecap="round" stroke-linejoin="round"/>
<path d="M66.0837 268.98C64.5848 267.753 63.9368 266.712 62.9092 265.17" stroke="black" stroke-linecap="round" stroke-linejoin="round"/>
<path d="M81.9561 260.091C95.2618 261.569 109.566 266.103 119.556 275.47C121.874 277.643 124.733 280.957 128.092 281.043C134.469 281.206 141.062 281.456 147.351 280.408" stroke="black" stroke-linecap="round" stroke-linejoin="round"/>
<path d="M158.779 274.059C158.743 269.565 158.475 265.192 158.144 260.726" stroke="black" stroke-linecap="round" stroke-linejoin="round"/>
<path d="M154.97 238.504C159.96 234.056 165.701 230.984 171.477 227.711" stroke="black" stroke-linecap="round" stroke-linejoin="round"/>
<path d="M226.713 209.299C228.593 211.179 230.051 212.725 232.427 213.743" stroke="black" stroke-linecap="round" stroke-linejoin="round"/>
<path d="M248.935 197.871C247.998 189.911 244.92 183.072 241.951 175.649" stroke="black" stroke-linecap="round" stroke-linejoin="round"/>
<path d="M220.999 142C215.995 139.957 212.16 137.28 207.667 134.381" stroke="black" stroke-linecap="round" stroke-linejoin="round"/>
<path d="M195.603 126.127C188.196 126.127 180.789 126.127 173.382 126.127" stroke="black" stroke-linecap="round" stroke-linejoin="round"/>
<path d="M122.59 107.715C117.246 105.791 111.587 104.647 106.083 103.271" stroke="black" stroke-linecap="round" stroke-linejoin="round"/>
<path d="M56.5599 99.4614C54.4662 100.632 52.3785 101.636 50.2109 102.636" stroke="black" stroke-linecap="round" stroke-linejoin="round"/>
<path d="M39.4176 114.699C38.9567 129.506 37.9595 143.958 40.6874 158.507" stroke="black" stroke-linecap="round" stroke-linejoin="round"/>
<path d="M50.8462 190.252C50.8462 193.638 50.8462 197.024 50.8462 200.41" stroke="black" stroke-linecap="round" stroke-linejoin="round"/>
<path d="M36.2434 229.616C31.8396 236.075 28.0945 242.929 23.5454 249.298" stroke="black" stroke-linecap="round" stroke-linejoin="round"/>
<path d="M24.8149 256.282C26.9473 261.208 28.6151 266.639 31.7988 270.884" stroke="black" stroke-linecap="round" stroke-linejoin="round"/>
<path d="M48.9414 277.868C54.2623 280.039 59.324 282.649 64.8139 284.217" stroke="black" stroke-linecap="round" stroke-linejoin="round"/>
<path d="M91.4795 247.393C91.4795 241.467 91.4795 235.542 91.4795 229.616" stroke="black" stroke-linecap="round" stroke-linejoin="round"/>
<path d="M94.6544 204.22C93.1203 195.476 89.2441 187.863 85.1309 180.094" stroke="black" stroke-linecap="round" stroke-linejoin="round"/>
<path d="M81.3213 166.761C83.1473 164.684 85.016 162.898 87.0354 161.047" stroke="black" stroke-linecap="round" stroke-linejoin="round"/>
<path d="M107.352 156.602C107.352 151.523 107.352 146.444 107.352 141.365" stroke="black" stroke-linecap="round" stroke-linejoin="round"/>
<path d="M161.319 208.664C161.886 214.005 162.015 219.705 163.224 224.96C163.739 227.202 165.204 227.046 167.033 227.711" stroke="black" stroke-linecap="round" stroke-linejoin="round"/>
<path d="M217.19 213.743C221.731 208.662 225.515 204.792 229.324 199.141C238.651 185.301 228.826 198.417 236.872 184.538" stroke="black" stroke-linecap="round" stroke-linejoin="round"/>
<path d="M287.029 87.3983C287.307 89.7316 287.497 92.0428 287.664 94.3822" stroke="black" stroke-linecap="round" stroke-linejoin="round"/>
<path d="M290.838 119.143C279.022 135.133 267.396 150.921 253.203 164.927C246.773 171.271 240.107 175.963 233.062 181.363" stroke="black" stroke-linecap="round" stroke-linejoin="round"/>
<path d="M226.713 185.808C235.326 190.295 244.06 191.636 253.379 194.062" stroke="black" stroke-linecap="round" stroke-linejoin="round"/>
<path d="M345.439 191.522C346.586 185.379 347.259 179.306 347.979 173.11" stroke="black" stroke-linecap="round" stroke-linejoin="round"/>
<path d="M354.963 115.969C339.137 112.65 324.809 104.066 310.52 96.9219" stroke="black" stroke-linecap="round" stroke-linejoin="round"/>
<path d="M262.903 97.5568C254.977 115.39 246.089 132.732 237.507 150.253" stroke="black" stroke-linecap="round" stroke-linejoin="round"/>
<path d="M234.332 157.237C241.608 154.063 248.719 150.428 255.919 147.079" stroke="black" stroke-linecap="round" stroke-linejoin="round"/>
<path d="M302.267 121.683C303.809 117.569 305.564 113.628 307.346 109.62" stroke="black" stroke-linecap="round" stroke-linejoin="round"/>
<path d="M318.774 52.4788C322.583 51.4207 326.393 50.3625 330.202 49.3043" stroke="black" stroke-linecap="round" stroke-linejoin="round"/>
<path d="M368.931 51.2091C372.368 65.9481 375.119 80.2463 375.386 95.4405C375.505 102.259 375.486 108.03 374.574 114.77C373.459 123.02 370.218 129.774 367.661 137.555" stroke="black" stroke-linecap="round" stroke-linejoin="round"/>
<path d="M325.758 191.522C326.135 197.431 329.406 203.25 333.024 207.818C340.055 216.694 349.79 215.703 360.042 216.283" stroke="black" stroke-linecap="round" stroke-linejoin="round"/>
<path d="M412.739 200.41C415.364 183.908 420.513 168.089 425.437 152.158" stroke="black" stroke-linecap="round" stroke-linejoin="round"/>
<path d="M431.786 103.906C424.723 98.0322 414.447 92.7518 411.822 83.3773C410.398 78.2916 415.073 75.1185 418.453 72.1608" stroke="black" stroke-linecap="round" stroke-linejoin="round"/>
<path d="M453.373 84.2239C453.27 92.9639 453.251 101.673 452.138 110.361C450.927 119.817 448.395 128.897 446.389 138.19" stroke="black" stroke-linecap="round" stroke-linejoin="round"/>
<path d="M444.484 187.713C444.555 192.171 445.119 196.587 445.119 201.045" stroke="black" stroke-linecap="round" stroke-linejoin="round"/>
<path d="M482.578 236.6C487.618 233.705 491.302 231.117 494.641 226.441" stroke="black" stroke-linecap="round" stroke-linejoin="round"/>
<path d="M474.959 97.5568C474.287 91.0031 474.324 84.4558 474.324 77.8749" stroke="black" stroke-linecap="round" stroke-linejoin="round"/>
<path d="M472.419 25.8131C465.453 28.2926 458.735 30.9508 451.468 32.1621" stroke="black" stroke-linecap="round" stroke-linejoin="round"/>
<path d="M184.693 56.5074C197.581 67.6178 211 78.0587 223.622 89.4534C226.521 92.0704 232.11 96.2137 233.089 100.132" stroke="black" stroke-linecap="round" stroke-linejoin="round"/>
</svg>
