<svg width="1190" height="3054" viewBox="0 0 1190 3054" fill="none" xmlns="http://www.w3.org/2000/svg">
<g clip-path="url(#clip0)">
<rect width="1190" height="3054" fill="white"/>
<rect width="1190" height="3054" fill="url(#paint0_linear)"/>
<path d="M44.9565 222.14L46.3378 216L50.2007 222.14H55L51.6756 229.481V237L48 231.75L43.2943 236.11L44.9565 228.591L41 223.875L44.9565 222.14Z" fill="#D4D182"/>
<path d="M44.9565 222.14L46.3378 216L50.2007 222.14H55L51.6756 229.481V237L48 231.75L43.2943 236.11L44.9565 228.591L41 223.875L44.9565 222.14Z" fill="url(#paint1_linear)"/>
<path d="M44.9565 222.14L46.3378 216L50.2007 222.14H55L51.6756 229.481V237L48 231.75L43.2943 236.11L44.9565 228.591L41 223.875L44.9565 222.14Z" stroke="black" stroke-opacity="0.68"/>
<path d="M197.957 145.14L199.338 139L203.201 145.14H208L204.676 152.481V160L201 154.75L196.294 159.11L197.957 151.591L194 146.875L197.957 145.14Z" fill="#D4D182"/>
<path d="M197.957 145.14L199.338 139L203.201 145.14H208L204.676 152.481V160L201 154.75L196.294 159.11L197.957 151.591L194 146.875L197.957 145.14Z" fill="url(#paint2_linear)"/>
<path d="M197.957 145.14L199.338 139L203.201 145.14H208L204.676 152.481V160L201 154.75L196.294 159.11L197.957 151.591L194 146.875L197.957 145.14Z" stroke="black" stroke-opacity="0.68"/>
<path d="M276.957 291.14L278.338 285L282.201 291.14H287L283.676 298.481V306L280 300.75L275.294 305.11L276.957 297.591L273 292.875L276.957 291.14Z" fill="#D4D182"/>
<path d="M276.957 291.14L278.338 285L282.201 291.14H287L283.676 298.481V306L280 300.75L275.294 305.11L276.957 297.591L273 292.875L276.957 291.14Z" fill="url(#paint3_linear)"/>
<path d="M276.957 291.14L278.338 285L282.201 291.14H287L283.676 298.481V306L280 300.75L275.294 305.11L276.957 297.591L273 292.875L276.957 291.14Z" stroke="black" stroke-opacity="0.68"/>
<path d="M462.957 73.1398L464.338 67L468.201 73.1398H473L469.676 80.4809V88L466 82.75L461.294 87.1102L462.957 79.5911L459 74.875L462.957 73.1398Z" fill="#D4D182"/>
<path d="M462.957 73.1398L464.338 67L468.201 73.1398H473L469.676 80.4809V88L466 82.75L461.294 87.1102L462.957 79.5911L459 74.875L462.957 73.1398Z" fill="url(#paint4_linear)"/>
<path d="M462.957 73.1398L464.338 67L468.201 73.1398H473L469.676 80.4809V88L466 82.75L461.294 87.1102L462.957 79.5911L459 74.875L462.957 73.1398Z" stroke="black" stroke-opacity="0.68"/>
<path d="M98.9565 62.1398L100.338 56L104.201 62.1398H109L105.676 69.4809V77L102 71.75L97.2943 76.1102L98.9565 68.5911L95 63.875L98.9565 62.1398Z" fill="#D4D182"/>
<path d="M98.9565 62.1398L100.338 56L104.201 62.1398H109L105.676 69.4809V77L102 71.75L97.2943 76.1102L98.9565 68.5911L95 63.875L98.9565 62.1398Z" fill="url(#paint5_linear)"/>
<path d="M98.9565 62.1398L100.338 56L104.201 62.1398H109L105.676 69.4809V77L102 71.75L97.2943 76.1102L98.9565 68.5911L95 63.875L98.9565 62.1398Z" stroke="black" stroke-opacity="0.68"/>
<path d="M487.957 166.14L489.338 160L493.201 166.14H498L494.676 173.481V181L491 175.75L486.294 180.11L487.957 172.591L484 167.875L487.957 166.14Z" fill="#D4D182"/>
<path d="M487.957 166.14L489.338 160L493.201 166.14H498L494.676 173.481V181L491 175.75L486.294 180.11L487.957 172.591L484 167.875L487.957 166.14Z" fill="url(#paint6_linear)"/>
<path d="M487.957 166.14L489.338 160L493.201 166.14H498L494.676 173.481V181L491 175.75L486.294 180.11L487.957 172.591L484 167.875L487.957 166.14Z" stroke="black" stroke-opacity="0.68"/>
<path d="M779.957 94.1398L781.338 88L785.201 94.1398H790L786.676 101.481V109L783 103.75L778.294 108.11L779.957 100.591L776 95.875L779.957 94.1398Z" fill="#D4D182"/>
<path d="M779.957 94.1398L781.338 88L785.201 94.1398H790L786.676 101.481V109L783 103.75L778.294 108.11L779.957 100.591L776 95.875L779.957 94.1398Z" fill="url(#paint7_linear)"/>
<path d="M779.957 94.1398L781.338 88L785.201 94.1398H790L786.676 101.481V109L783 103.75L778.294 108.11L779.957 100.591L776 95.875L779.957 94.1398Z" stroke="black" stroke-opacity="0.68"/>
<path d="M643.957 355.14L645.338 349L649.201 355.14H654L650.676 362.481V370L647 364.75L642.294 369.11L643.957 361.591L640 356.875L643.957 355.14Z" fill="#D4D182"/>
<path d="M643.957 355.14L645.338 349L649.201 355.14H654L650.676 362.481V370L647 364.75L642.294 369.11L643.957 361.591L640 356.875L643.957 355.14Z" fill="url(#paint8_linear)"/>
<path d="M643.957 355.14L645.338 349L649.201 355.14H654L650.676 362.481V370L647 364.75L642.294 369.11L643.957 361.591L640 356.875L643.957 355.14Z" stroke="black" stroke-opacity="0.68"/>
<path d="M765.957 232.14L767.338 226L771.201 232.14H776L772.676 239.481V247L769 241.75L764.294 246.11L765.957 238.591L762 233.875L765.957 232.14Z" fill="#D4D182"/>
<path d="M765.957 232.14L767.338 226L771.201 232.14H776L772.676 239.481V247L769 241.75L764.294 246.11L765.957 238.591L762 233.875L765.957 232.14Z" fill="url(#paint9_linear)"/>
<path d="M765.957 232.14L767.338 226L771.201 232.14H776L772.676 239.481V247L769 241.75L764.294 246.11L765.957 238.591L762 233.875L765.957 232.14Z" stroke="black" stroke-opacity="0.68"/>
<path d="M1053 30.5C1117 109.5 1074 125 1037.5 140C1059 130.167 1092.2 94.5 1053 30.5Z" fill="#E9AF59"/>
</g>
<defs>
<linearGradient id="paint0_linear" x1="595" y1="0" x2="595" y2="3054" gradientUnits="userSpaceOnUse">
<stop offset="0.223958" stop-color="#6E7CF5"/>
<stop offset="0.994672" stop-color="#EDE3F4"/>
<stop offset="0.9999" stop-color="#F9C1D6" stop-opacity="0.755658"/>
<stop offset="1" stop-color="white" stop-opacity="0"/>
</linearGradient>
<linearGradient id="paint1_linear" x1="48" y1="216" x2="48" y2="237" gradientUnits="userSpaceOnUse">
<stop stop-color="#EBDEDE"/>
<stop offset="0.901042" stop-color="white" stop-opacity="0"/>
</linearGradient>
<linearGradient id="paint2_linear" x1="201" y1="139" x2="201" y2="160" gradientUnits="userSpaceOnUse">
<stop stop-color="#EBDEDE"/>
<stop offset="0.901042" stop-color="white" stop-opacity="0"/>
</linearGradient>
<linearGradient id="paint3_linear" x1="280" y1="285" x2="280" y2="306" gradientUnits="userSpaceOnUse">
<stop stop-color="#EBDEDE"/>
<stop offset="0.901042" stop-color="white" stop-opacity="0"/>
</linearGradient>
<linearGradient id="paint4_linear" x1="466" y1="67" x2="466" y2="88" gradientUnits="userSpaceOnUse">
<stop stop-color="#EBDEDE"/>
<stop offset="0.901042" stop-color="white" stop-opacity="0"/>
</linearGradient>
<linearGradient id="paint5_linear" x1="102" y1="56" x2="102" y2="77" gradientUnits="userSpaceOnUse">
<stop stop-color="#EBDEDE"/>
<stop offset="0.901042" stop-color="white" stop-opacity="0"/>
</linearGradient>
<linearGradient id="paint6_linear" x1="491" y1="160" x2="491" y2="181" gradientUnits="userSpaceOnUse">
<stop stop-color="#EBDEDE"/>
<stop offset="0.901042" stop-color="white" stop-opacity="0"/>
</linearGradient>
<linearGradient id="paint7_linear" x1="783" y1="88" x2="783" y2="109" gradientUnits="userSpaceOnUse">
<stop stop-color="#EBDEDE"/>
<stop offset="0.901042" stop-color="white" stop-opacity="0"/>
</linearGradient>
<linearGradient id="paint8_linear" x1="647" y1="349" x2="647" y2="370" gradientUnits="userSpaceOnUse">
<stop stop-color="#EBDEDE"/>
<stop offset="0.901042" stop-color="white" stop-opacity="0"/>
</linearGradient>
<linearGradient id="paint9_linear" x1="769" y1="226" x2="769" y2="247" gradientUnits="userSpaceOnUse">
<stop stop-color="#EBDEDE"/>
<stop offset="0.901042" stop-color="white" stop-opacity="0"/>
</linearGradient>
<clipPath id="clip0">
<rect width="1190" height="3054" fill="white"/>
</clipPath>
</defs>
</svg>
